<svg xmlns="http://www.w3.org/2000/svg" viewBox="0 0 1000 1000"><rect x="0" y="0" width="1000" height="1000" fill="#000000"/><path fill="#fee407" fill-rule="evenodd" d="M913.5 151.8L916.2 151.8L915.7 153.4C909.3 160.4 888.6 181.5 877.8 194.1C867 206.6 858.6 218 851 228.5C843.5 238.9 838.5 246.9 832.6 256.8C826.6 266.7 820.7 276.8 815.1 287.9C809.5 299.1 803.6 312.5 798.9 323.9C794.2 335.4 790.3 346.1 786.9 356.8C783.4 367.5 780.8 376.9 778.2 388.1C775.5 399.3 772.9 411.1 771 424.1C769 437.1 767.2 451.7 766.5 466.4C765.8 481 766.3 501 766.6 511.7C766.8 522.4 767.1 521.6 768 530.5C769 539.4 770.9 555 772.5 564.9C774.1 574.9 775.6 581.9 777.4 590C779.3 598.1 781.1 605.1 783.5 613.5C785.9 621.8 788.8 631.5 791.7 640.1C794.7 648.7 797.9 657.3 801 665.1C804.2 672.9 807.1 679.7 810.4 687C813.8 694.3 816.1 699.6 821.1 708.9C826.1 718.2 835.1 734 840.4 742.8C845.7 751.7 847.5 754.2 853 762.1C858.5 770 867.3 782.2 873.2 790.2C879.2 798.1 881.8 801.5 888.9 809.8C896 818.2 911.4 835 915.9 840.4C920.5 845.7 916.3 841.6 916.2 841.9L915.5 842.7L904.5 838.2C899.8 836.6 893.1 835 887.3 833.1C881.6 831.2 876.1 829.1 870.1 826.8C864.1 824.4 859.4 822.8 851.3 819C843.2 815.2 830.7 809 821.6 804C812.5 799.1 804.6 794.5 796.6 789.4C788.5 784.3 780.7 779.1 773.1 773.5C765.4 767.9 757.5 761.5 750.7 755.9C743.9 750.2 737.6 744.4 732.4 739.5C727.2 734.5 726.3 734.1 719.4 726.1C712.6 718.2 698.1 700.4 691.3 691.7C684.6 683 683.6 681 679.2 673.9C674.8 666.8 669.4 657.6 665.1 649.3C660.8 641.1 657 632.7 653.6 624.4C650.1 616.1 646.9 607.5 644.3 599.4C641.7 591.3 639.5 583.2 637.7 575.9C635.9 568.6 634.6 562.6 633.4 555.6C632.2 548.5 631.1 540.7 630.4 533.6C629.6 526.6 629.1 523 629 513.3C628.8 503.7 628.9 486.2 629.4 475.7C629.9 465.3 630.8 459.6 632.2 450.7C633.7 441.8 636.1 430.9 638 422.5C640 414.2 641.5 408.5 644 400.6C646.5 392.8 649.9 383.4 653.1 375.6C656.2 367.8 658.6 362 662.7 353.7C666.8 345.3 673.4 332.9 677.6 325.6C681.8 318.3 683.8 315.8 688 309.9C692.2 303.9 697.6 296.3 702.7 290C707.7 283.6 712.8 277.6 718.3 271.6C723.8 265.6 730 259.2 735.5 253.8C741 248.4 744.9 244.5 751.2 239.2C757.4 233.8 764.7 228 773.1 221.8C781.4 215.7 791.6 208.5 801.3 202.4C810.9 196.4 821.9 190.3 831 185.4C840.1 180.5 848.7 176.5 856 173.2C863.3 169.9 865.2 169 874.8 165.4C884.4 161.9 906.6 154.1 913.5 151.8ZM352.4 153.4L355.2 152.6L355.8 153.4C355.8 153.7 360 149.8 355.2 154.9C350.4 160 336.7 173 327.1 183.8C317.4 194.7 306 208.6 297.3 219.9C288.7 231.3 281.7 242.2 275.4 252C269.1 261.7 265.6 267.3 259.7 278.6C253.9 289.8 246 306.2 240.4 319.2C234.9 332.3 230.6 343.8 226.4 356.8C222.3 369.8 218.3 384.7 215.5 397.5C212.6 410.3 210.8 422.8 209.3 433.5C207.8 444.2 207 452.8 206.4 461.7C205.9 470.5 206.1 477.8 206.1 486.7C206.1 495.6 205.9 505 206.4 514.9C206.9 524.8 208 536.3 209.2 546.2C210.5 556.1 212 564.7 213.8 574.3C215.7 584 216.7 591 220.4 604.1C224 617.1 230.8 638.8 235.7 652.6C240.6 666.4 246.4 678.9 249.8 687C253.3 695.1 253.1 694.3 256.5 701.1C260 707.9 266.7 720.7 270.6 727.7C274.5 734.7 275 735.5 280 743.3C285 751.1 295.7 767.5 300.5 774.5C305.3 781.5 303.4 778.6 308.9 785.6C314.4 792.6 325.5 807.3 333.3 816.7L356 841.9L355.2 843.5L319.2 831.4C308.8 827.6 302.3 824.8 292.6 820.4C283 816 271 810.1 261.3 805C251.7 799.9 242.8 794.8 234.7 789.8C226.7 784.8 219.4 779.6 212.8 774.9C206.3 770.3 202.7 767.6 195.6 761.6C188.6 755.7 177.8 746.3 170.6 739.3C163.4 732.4 159.1 728.1 152.2 719.9C145.3 711.7 134.8 697.7 129.2 690.1C123.6 682.6 122.4 680.8 118.5 674.5C114.7 668.2 110.2 660.7 106 652.6C101.8 644.5 97 634.6 93.4 626C89.7 617.4 86.8 609 84.1 600.9C81.5 592.9 79.4 584.8 77.6 577.5C75.8 570.2 74.7 568.1 73.2 557.1C71.6 546.2 69 523.2 68.2 511.7C67.3 500.3 67.6 498.4 68.1 488.3C68.7 478.1 70.4 460.6 71.7 450.7C73 440.8 74 436.6 75.8 428.8C77.6 421 80 411.8 82.5 403.8C84.9 395.7 87.6 388.1 90.6 380.3C93.7 372.5 97.2 364.4 100.8 356.8C104.4 349.2 108 342.4 112.4 334.9C116.7 327.4 121.2 319.9 126.8 311.9C132.3 303.9 140.3 293.7 145.5 287.1C150.8 280.5 152.6 278.4 158.4 272.3C164.1 266.2 173.1 256.9 180 250.4C186.9 243.9 192.1 239.2 199.5 233.2C207 227.2 217.2 219.6 224.6 214.4C232.1 209.1 237.8 205.6 244.1 201.7C250.5 197.7 254.8 194.9 262.9 190.6C271 186.4 282.7 180.6 292.6 176.2C302.6 171.7 312.4 167.7 322.4 163.9C332.3 160.1 347 155.2 352.4 153.4ZM616.3 164.3L619.1 164.3L618.6 165.9C613.9 170.8 600.1 184.1 591.1 194.1C582.2 204 572.9 214.9 564.8 225.4C556.8 235.8 550 245.2 542.6 256.7C535.3 268.1 527.1 282.1 520.6 294.2C514.2 306.3 508.8 317.9 503.9 329.3C499 340.8 494.8 352 491.1 363.1C487.4 374.2 485 382.6 481.8 395.9C478.7 409.2 474.3 430.4 472.2 442.9C470.1 455.4 469.6 463.7 469.1 471L469.5 487.2L575.9 488.3L576.2 524.3C576.2 531 576.3 527.8 576 529C575.7 530.1 591.8 531 574.3 531.4L471 531.4L470.2 533.6C470.1 535.3 470.1 537.6 470.4 541.5C470.8 545.4 470.5 546.9 472.1 557.1C473.7 567.3 477.5 590.2 480.1 602.5C482.6 614.8 483.7 618.7 487.4 630.7C491.1 642.6 497.5 661.5 502.3 674.1C507.2 686.7 512.6 698 516.4 706.4C520.3 714.8 521.9 717.8 525.5 724.6C529.2 731.4 531.5 736.4 538.3 747.3C545.2 758.3 558.7 779.1 566.5 790.3C574.3 801.5 577.2 804.8 585.3 814.5C593.3 824.1 609.2 841.5 614.8 848.2L619.2 854.5L616.6 855.1C607.8 852.1 578.5 841.1 566.5 836.5C554.5 831.8 551.9 830.5 544.6 827C537.3 823.6 532.1 821.2 522.7 815.9C513.3 810.6 496.9 800.7 488.3 795.1C479.7 789.6 477.5 787.6 471 782.6C464.6 777.7 457.4 772.1 449.7 765.3C442 758.4 432.7 749.8 425 741.8C417.4 733.8 409.2 723.9 403.8 717.3C398.4 710.8 396 707.5 392.6 702.7C389.2 697.9 387.4 695.6 383.2 688.6C378.9 681.5 371.5 668.5 367.3 660.4C363.1 652.3 360.6 646.6 357.7 640.1C354.9 633.5 352.6 627.5 350.3 621.3C348 615 346.1 609.8 344 602.5C341.8 595.2 339.4 586.1 337.6 577.5C335.8 568.9 334.1 558.2 333.1 550.9C332.2 543.6 332.3 536.8 332 533.6C331.6 530.5 332.3 532.5 331 532.1C329.7 531.6 341.8 531.2 323.9 531C306.1 530.8 240.8 531.2 223.8 530.9C206.8 530.5 222.1 535.8 221.8 529C221.5 522.1 221.8 496.6 221.9 489.8C222 483 221.9 488.6 222.5 488.3C223.1 487.9 207.1 487.7 225.4 487.6L331.8 487.6L333.1 483.6C333.6 479.5 332.7 473.4 334.5 463.2C336.2 453.1 340.8 433.5 343.6 422.5C346.5 411.6 348.9 405.1 351.6 397.5C354.3 389.9 356.3 384.7 359.8 377.2C363.2 369.6 367.7 360.2 372.2 352.1C376.6 344 381.1 336.5 386.3 328.6C391.4 320.8 397.1 313 403.2 305.2C409.2 297.4 416.2 288.9 422.5 281.9C428.9 274.8 435.1 268.8 441.3 262.8C447.6 256.9 453.3 251.7 460.1 246.1C466.9 240.5 474.4 234.7 482 229.4C489.6 224 498.2 218.6 505.5 214C512.8 209.5 517 206.8 525.8 202.1C534.7 197.4 548.8 190.3 558.7 185.7C568.6 181.2 575.7 178.3 585.3 174.7C594.9 171.2 610.6 166.1 616.3 164.3Z"/></svg>
