<svg xmlns="http://www.w3.org/2000/svg" viewBox="0 0 1000 1000"><rect x="0" y="0" width="1000" height="1000" fill="#262557"/><path fill="#ffffff" fill-rule="evenodd" d="M332.4 315.6C352.4 313.9 389.9 313.7 404.4 313.7L419.7 315.6L418.5 324.4C411 338.5 383.1 386.5 374.8 400C366.5 413.5 378.8 404.2 368.9 405.4C359 406.6 328.1 406 315.6 407.1C303 408.2 301.5 409.6 293.3 411.9C285.2 414.2 274.1 417.9 266.7 420.9C259.3 423.8 256.1 425 248.9 429.7C241.7 434.4 230.2 442.7 223.3 448.9C216.3 455.1 211.3 461.5 207.1 466.7C202.9 471.9 201.7 473.3 198 480C194.4 486.7 187.8 499.3 185.3 506.7C182.8 514.1 183.1 519.3 183 524.4C183 529.6 182.9 533.7 185 537.8C187.1 541.8 189.3 545.6 195.6 548.9C201.8 552.1 208.9 555.9 222.2 557.5C235.6 559.1 266.2 557.9 275.6 558.3C284.9 558.7 277.9 558.2 278.2 560C278.4 561.8 284.3 555.6 277.1 568.9C269.9 582.2 242.5 627.1 234.9 640C227.2 652.9 233.2 645.2 231.1 646.3C229 647.5 240.7 646.8 222.2 646.9C203.7 646.9 142.2 648.3 120 646.6C97.8 644.8 97.4 641.1 88.9 636.3C80.4 631.5 73.9 623.8 69.1 617.8C64.4 611.7 62.3 605.2 60.2 600C58.2 594.8 57.5 591.9 56.8 586.7C56.2 581.5 55.4 577.8 56.2 568.9C56.9 560 58.3 545.2 61.3 533.3C64.3 521.5 67.6 511.1 74.2 497.8C80.8 484.4 93.2 464.9 100.8 453.3C108.4 441.8 110.1 439.4 120 428.7C129.9 418 145.9 401 160 389.3C174.1 377.5 189.6 366.9 204.4 358C219.3 349.1 235.6 341.6 248.9 335.9C262.2 330.2 270.5 327.2 284.4 323.8C298.4 320.5 312.4 317.3 332.4 315.6ZM434.2 315.6C442.6 302.6 402 314 440 313.7C478 313.3 623.8 313.4 662.2 313.7L670.5 315.6L668.5 324.4C660.4 338.8 669.2 389.2 622.2 402L386.7 401L389.5 391.1C397.4 376.9 425.8 328.5 434.2 315.6ZM682.4 315.6C690.8 302.7 650 314.2 688.9 313.9C727.7 313.6 877.2 313.7 915.6 313.9L918.8 315.6L917.5 324.4C909.5 338.9 918.1 389.3 871.1 402.1L635.6 400.8L638.6 391.1C646.4 376.9 674 328.4 682.4 315.6ZM362 440C380.8 409.1 330 437.1 368.9 436.6C407.8 436.1 557.1 436.4 595.6 436.9L599.6 440L598 444.4C590 458.6 580.4 511.1 551.1 524.7C521.8 538.3 444.5 525.4 422.2 526.1C399.9 526.8 420.3 524.7 417.2 528.9C414 533.1 405.9 546.7 403.3 551.1C400.8 555.6 401.7 554.3 401.9 555.6C402.1 556.8 384 558 404.4 558.5C424.9 558.9 503.8 557.9 524.4 558.2L528.3 560L528.1 564.4C520 578.8 526.5 632.7 480 646.4C433.5 660.1 288 647 248.9 646.7L245.5 644.4L256 622.2C275.4 588.1 343.2 470.9 362 440ZM611.2 440C631.7 405.4 579.6 437.4 617.8 436.9C655.9 436.4 801.5 436.6 840 437L848.9 439.6L800 524.9C771.1 539.3 697.9 525.2 675.6 525.9C653.2 526.6 670.2 523.9 666.1 528.9L651.1 555.6L653.3 558.3C673.7 558.7 752.7 558.1 773.3 558.4L777.3 560L770.7 577.8C762.6 592.2 774.4 635 728.9 646.5C683.4 658 536.8 647 497.8 646.6L494.5 644.4L611.2 440Z"/></svg>
